# xmcd CD database generated by RipIT
#
# Track frame offsets:
# 150
# 16897
# 37972
# 59223
# 81002
# 100455
# 117138
# 136270
# 154445
# 172513
#
# Disc length: 2691 seconds
#
# Revision: 0
# Processed by: cddbd v1.5.2PL0 Copyright (c) Steve Scherf et al.
# Submitted via: RipIT 3.9.0 www.suwald.com/ripit/ripit.html on 2012-07-18 at 10:54
#
DISCID=790a810a
DTITLE=Stan Ridgway - Mr. Trouble
DYEAR=2012
DGENRE=Folk
TTITLE0=The Drowning Man
TTITLE1=All Too Much
TTITLE2=Across The Border
TTITLE3=Mr. Trouble
TTITLE4=Gone Deep Underground
TTITLE5=We Never Close
TTITLE6=Afghan Forklift (live)
TTITLE7=Turn A Blind Eye (live)
TTITLE8=Stranded (live)
TTITLE9=Camouflage (live)
EXTD=
EXTT0=
EXTT1=
EXTT2=
EXTT3=
EXTT4=
EXTT5=
EXTT6=
EXTT7=
EXTT8=
EXTT9=
PLAYORDER=
